<?xml version="1.0" encoding="utf-8"?>
<!-- Generator: Adobe Illustrator 19.1.0, SVG Export Plug-In . SVG Version: 6.00 Build 0)  -->
<svg version="1.1" id="Layer_1" xmlns="http://www.w3.org/2000/svg" xmlns:xlink="http://www.w3.org/1999/xlink" x="0px" y="0px"
	 width="50px" height="50px" viewBox="0 0 50 50" enable-background="new 0 0 50 50" xml:space="preserve">
<path fill="#F58025" d="M48.7,18.8c0.8-0.2,1.2,0.1,1.3-0.1c0.1-0.2-0.5-1.1-2.3-0.7c-1.8,0.3-2.6,1.5-2.6,1.5s-1,0.3-1.6,0.5
	c-0.6,0.2-1.4,0.7-1.4,0.7c-1-2.1-2-3.2-2-3.2s-3.7-4.8-9.3-6c-5.7-1.2-11.4,0-11.4,0s-0.3-0.5-1.7-2c-1.3-1.6-3.5-2-3.7-1.9
	c-0.2,0.1-1.1,6-1.1,6s-2,0.9-3.4,2.9c-1.4,2-1.7,3.9-1.9,3.9c-0.2,0-0.7-0.4-1.5-0.8c-0.7-0.4-1.3-1.1-2-1.2
	c-0.7-0.1-1.5,1.1-1.5,1.1s-0.9,1.7-1.4,3c-0.5,1.3-1.4,4.1-1,4.6c0.4,0.5,1.3,0.6,3.1,1.4c1.8,0.7,1.4,1.2,1.4,1.2
	s-0.9,0.8-0.9,1.2c-0.1,0.4-0.1,0.5,0.4,1.1c0.5,0.7,2.5,1.4,2.5,1.4s1.6,2,2.5,3c0.9,1,2.9,2.8,2.9,2.8s-0.4,0.6-0.5,1.4
	c-0.1,0.9,0,1.6,0,1.6s9.8,0,10,0c0.2,0,0.4-0.5,0.4-0.5h4.2c0,0,0.1,0.6,0.2,0.6c0.2,0,10.3,0,10.3,0s4.6-3.8,6.3-9.1
	c1.7-5.3,0.2-11,0.2-11l0.7-0.4c0,0,0,0.3,0,0.5c0,1.7,1.3,3,3,3c1.7,0,3-1.3,3-3c0-1.4-1-2.6-2.3-2.9
	C47.4,19.5,47.9,18.9,48.7,18.8z M33.3,16.2c0,0-3-1.2-5.9-1.5c-2.8-0.3-5.8,0.2-5.8,0.2c-0.4,0-0.7-0.4-0.7-0.9
	c0-0.4,0.4-0.7,0.9-0.7c0,0,2.6-0.6,5.9-0.2c3.2,0.4,5.8,1.5,5.8,1.5c0.4,0.1,0.7,0.4,0.7,0.9C34.1,16,33.7,16.3,33.3,16.2z
	 M48.1,22.5c0,0.8-0.6,1.4-1.4,1.4c-0.8,0-1.4-0.6-1.4-1.4c0-0.8,0.6-1.4,1.4-1.4C47.5,21.1,48.1,21.7,48.1,22.5z"/>
</svg>
