<?xml version="1.0" encoding="utf-8"?>
<!-- Generator: Adobe Illustrator 19.1.0, SVG Export Plug-In . SVG Version: 6.00 Build 0)  -->
<svg version="1.1" id="Layer_1" xmlns="http://www.w3.org/2000/svg" xmlns:xlink="http://www.w3.org/1999/xlink" x="0px" y="0px"
	 width="50px" height="50px" viewBox="0 0 50 50" enable-background="new 0 0 50 50" xml:space="preserve">
<path fill="#F58025" d="M46.5,23.2c-1.6-0.8-5.1-1.5-9.4-2l-10-5.4l-0.1-0.1c-2-1-3.9-1.1-6.4-0.8c-1.5,0.2-3,0.5-4.6,0.9
	c-3.3,0.8-6.8,2.1-9.7,3.5c-0.7,0-1.4,0-1.8,0c-1.7,0-3,0.7-3.8,1.9c-0.3,0.5-0.6,1.2-0.6,1.9l0,5.4c0,1,0.3,1.7,0.6,2.3
	c0.1,0.1,0.2,0.3,0.3,0.4c0.8,0.9,2,1.2,3.2,1.2h0c-0.4-1.8,0.2-3.7,1.5-5.1c1-1,2.4-1.6,4-1.6c1.6,0,3,0.6,4,1.6
	c1.3,1.3,1.9,3.2,1.5,5.1h18.2c-0.4-1.8,0.2-3.7,1.5-5.1c1-1,2.4-1.6,4-1.6c1.6,0,3,0.6,4,1.6c1.3,1.3,1.9,3.2,1.5,5.1h0.5
	c1.8,0,2.6-0.2,3-1.5c0.6-1.8,2.1-2.7,2.1-4.1c0-0.3-0.1-0.6-0.3-0.9C49.1,24.7,47.4,23.7,46.5,23.2z M31.8,20.7l-21.2-1.2
	c-0.2,0-0.2-0.2-0.1-0.3c2.7-1.2,7.9-2.4,10.5-2.7c1.7-0.2,3.6,0.1,4.9,0.7l6,3.2C32.1,20.5,32,20.7,31.8,20.7z M38.9,27.2
	c-2.2,0-4,1.8-4,4c0,2.2,1.8,4,4.1,4c2.1,0,3.9-1.8,3.9-3.9C42.9,29.1,41.1,27.2,38.9,27.2z M41.1,31.8c-0.2,0.8-0.9,1.5-1.7,1.7
	c-1.5,0.3-2.9-0.8-2.9-2.3c0-1.3,1-2.3,2.3-2.3C40.3,28.9,41.5,30.3,41.1,31.8z M9.6,27.2c-2.2,0-4,1.8-4,4c0,2.2,1.8,4,4.1,4
	c2.1,0,3.9-1.8,3.9-3.9C13.7,29.1,11.9,27.2,9.6,27.2z M11.9,31.8c-0.2,0.8-0.9,1.5-1.7,1.7c-1.5,0.3-2.9-0.8-2.9-2.3
	c0-1.3,1-2.3,2.3-2.3C11.1,28.9,12.3,30.3,11.9,31.8z"/>
</svg>
