<?xml version="1.0" encoding="utf-8"?>
<!-- Generator: Adobe Illustrator 21.1.0, SVG Export Plug-In . SVG Version: 6.00 Build 0)  -->
<svg version="1.1" id="Layer_1" xmlns="http://www.w3.org/2000/svg" xmlns:xlink="http://www.w3.org/1999/xlink" x="0px" y="0px"
	 width="50px" height="50px" viewBox="0 0 50 50" style="enable-background:new 0 0 50 50;" xml:space="preserve">
<style type="text/css">
	.st0{fill:#F58025;}
</style>
<path class="st0" d="M47.7,14.8L19.9,7c-1.6-0.5-3.4,0.5-3.8,2.1l-1.5,5.5l-1.4,5h-10C1.4,19.6,0,21,0,22.7V40
	c0,1.7,1.4,3.1,3.1,3.1h29c1.7,0,3.1-1.4,3.1-3.1v-4.3l1,0.3l5.2,1.5c1.6,0.5,3.4-0.5,3.8-2.1l4.7-16.6C50.3,17,49.4,15.3,47.7,14.8
	z M16.7,16.7l0.9-3c0.1-0.4,0.6-0.7,1-0.6l5,1.4c0.4,0.1,0.7,0.6,0.6,1l-0.9,3c-0.1,0.4-0.6,0.7-1,0.6l-5-1.4
	C16.9,17.6,16.6,17.1,16.7,16.7z M33.3,40c0,0.7-0.6,1.3-1.3,1.3H3c-0.7,0-1.3-0.6-1.3-1.3V28.7h31.6L33.3,40z M33.3,24.2H1.8v-1.4
	c0-0.7,0.6-1.3,1.3-1.3h29c0.7,0,1.3,0.6,1.3,1.3L33.3,24.2L33.3,24.2z M43.9,29.9l-8.8-2.5V25l9.4,2.6L43.9,29.9z M19.7,30.7h-16
	v3.4h16V30.7z"/>
</svg>
