<?xml version="1.0" encoding="utf-8"?>
<!-- Generator: Adobe Illustrator 19.1.0, SVG Export Plug-In . SVG Version: 6.00 Build 0)  -->
<svg version="1.1" id="Layer_1" xmlns="http://www.w3.org/2000/svg" xmlns:xlink="http://www.w3.org/1999/xlink" x="0px" y="0px"
	 width="50px" height="50px" viewBox="0 0 50 50" enable-background="new 0 0 50 50" xml:space="preserve">
<g>
	<path fill="#F58025" d="M36.1,21.7c1.1,0,1.7-0.1,2.2-0.3l0,0v-0.5l-0.1,0c-0.6,0.1-1.1,0.2-1.5,0.2c-1.9,0-2.8-1.1-2.8-3.2
		c0-1.4,0.7-2.3,1.8-2.3c0.8,0,1.2,0.3,1.3,0.9l0,0.1h1.3l0-0.1c0-0.3-0.4-1.4-2.5-1.4c-2.1,0-3.2,1-3.2,3.1
		C32.6,20,33.7,21.7,36.1,21.7z M12.5,22.7c2.4,0,4.3-1.9,4.3-4.3c0-2.4-1.9-4.3-4.3-4.3c-2.4,0-4.3,1.9-4.3,4.3
		C8.2,20.7,10.1,22.7,12.5,22.7z M15.7,19.2c-0.6,0.3-1.7,1-4,2.3l-0.1,0.1c-0.2,0.1-0.5,0.2-0.7,0.2c-0.2,0-0.3,0-0.4-0.1
		c-0.3-0.3-0.1-0.9,0.3-1.7l0.4-0.8c0.1,0.1,0.2,0.2,0.4,0.2h2.9C15,19.3,15.4,19.2,15.7,19.2C15.7,19.2,15.7,19.2,15.7,19.2z
		 M11.6,15.2c0.6,0.3,1.7,1,4,2.3l0.1,0.1c0.4,0.2,0.7,0.6,0.6,0.9c-0.1,0.4-0.7,0.6-1.7,0.6h-0.9c0-0.1,0-0.3-0.1-0.4L12.2,16
		C12,15.7,11.8,15.4,11.6,15.2C11.6,15.2,11.6,15.2,11.6,15.2z M10.2,16.1l0-0.1c0-0.5,0.2-0.9,0.5-0.9c0,0,0.1,0,0.1,0
		c0.3,0,0.8,0.4,1.2,1.2l0.4,0.8c-0.1,0-0.2,0.1-0.3,0.3l-1.5,2.5c-0.2,0.4-0.4,0.7-0.4,1c0,0,0,0,0,0C10.2,20,10.1,18.7,10.2,16.1z
		 M26.1,16.4v5.3h0.7c0,0,0-5.1,0-5.4c0.2,0.2,3.9,5.4,3.9,5.4h1v-6.4H31c0,0,0,4.7,0,5c-0.2-0.2-3.6-5-3.6-5H25v0.3l0.1,0
		C26,15.6,26.1,15.7,26.1,16.4z M20.2,16.3v5.4h1.1c0,0,0-2.7,0-2.8c0.1,0,0.5,0,0.5,0c1.1,0,3.4,0,3.4-1.8c0-1.8-2.1-1.8-3.2-1.8
		H19v0.3l0.1,0C20.1,15.6,20.2,15.7,20.2,16.3z M21.3,16.3c0-0.5,0-0.6,0.9-0.6c1,0,1.6,0.5,1.6,1.3c0,1.2-1.1,1.3-2.1,1.3
		c0,0-0.3,0-0.4,0C21.3,18.2,21.3,16.3,21.3,16.3z M16.7,22.2L16.7,22.2c0.2,0,0.1,0.1,0.1,0.1c0,0,0,0.1,0,0.1h0.2c0,0,0-0.2,0-0.2
		c0-0.1-0.1-0.1-0.1-0.1v0c0.1,0,0.1-0.1,0.1-0.2c0-0.1-0.1-0.2-0.2-0.2h-0.3v0.7h0.2V22.2z M16.7,21.9L16.7,21.9
		c0.1,0,0.1,0,0.1,0.1c0,0,0,0.1-0.1,0.1h-0.1V21.9z M16.2,22.1c0,0.3,0.3,0.6,0.6,0.6c0.3,0,0.6-0.3,0.6-0.6c0-0.3-0.3-0.6-0.6-0.6
		C16.5,21.5,16.2,21.8,16.2,22.1z M16.8,21.6c0.3,0,0.5,0.2,0.5,0.5c0,0.3-0.2,0.5-0.5,0.5c-0.3,0-0.5-0.2-0.5-0.5
		C16.3,21.8,16.5,21.6,16.8,21.6z M0,9.5v27.3h50V9.5H0z M47.7,34.5H2.3V11.8h45.4V34.5z M0,40.5h50v-2.3H0V40.5z M31.7,32.3h10.1
		v-2.2H31.7V32.3z M35.9,25.4H8.2v2.2h27.7V25.4z M18.3,30.1H8.2v2.2h10.1V30.1z M19.8,32.3H30v-2.2H19.8V32.3z"/>
</g>
</svg>
